<svg id="Capa_1" data-name="Capa 1" xmlns="http://www.w3.org/2000/svg" viewBox="0 0 158 65.65"><defs><style>.cls-1{fill:#d1802e;}.cls-2{font-size:33px;fill:#4d3e32;font-family:AbrilFatface-Regular, Abril Fatface;}.cls-3{letter-spacing:-0.02em;}</style></defs><path class="cls-1" d="M31.14,22.87s-2.78.17-2.78,2.78a3,3,0,0,0,3.6,3A7.12,7.12,0,0,0,35.4,25a.32.32,0,0,1,.33.33s-.09,2,.24,2,.33-2.13.33-2.29.16-.16.32,0,2,3.27,3.28,3.6a3.86,3.86,0,0,0,2.78-.82,3.41,3.41,0,0,0,1-2.45c-.16-1.3-.74-1.88-2.49-2.53l-.09,0c-.13-.06-.47-.22-.2-.22h.33s2.12-.17,2.94-1.15A13.66,13.66,0,0,0,46,18.86c.16-.65,1.47-5.07,1.47-5.07s.49-2.12-1-2-5.76,3.89-6.32,4.37a.52.52,0,0,0-.1.11c-.42.58-3.31,5.09-3.4,5.83,0,0-.24.4-.32-.17h0c.24-.24.13-.88-.35-.81-.3.05-.39.24-.31.65,0,0,0,.82-.32.33A9.42,9.42,0,0,1,34.66,20S28.94,11,25,11.83c0,0-1.15.16.49,4.58S27,21.48,31.14,22.87Z" transform="translate(0.5 -3.39)"/><polygon class="cls-1" points="36.72 18.01 36.72 17.03 37.53 15.4 37.7 13.6 37.53 13.27 37.53 12.94 37.7 12.94 37.7 13.27 37.86 13.43 37.7 15.4 36.88 17.2 36.88 18.01 36.72 18.01"/><polygon class="cls-1" points="36.39 18.01 36.39 17.03 35.57 15.4 35.41 13.6 35.57 13.27 35.57 12.94 35.41 12.94 35.41 13.27 35.24 13.43 35.41 15.4 36.22 17.2 36.22 18.01 36.39 18.01"/><path class="cls-1" d="M115.14,22.87s-2.78.17-2.78,2.78a3,3,0,0,0,3.6,3A7.12,7.12,0,0,0,119.4,25a.32.32,0,0,1,.33.33s-.09,2,.24,2,.33-2.13.33-2.29.16-.16.32,0,2,3.27,3.28,3.6a3.86,3.86,0,0,0,2.78-.82,3.41,3.41,0,0,0,1-2.45c-.16-1.3-.74-1.88-2.49-2.53l-.09,0c-.13-.06-.47-.22-.2-.22h.33s2.12-.17,2.94-1.15a13.66,13.66,0,0,0,1.8-2.62c.16-.65,1.47-5.07,1.47-5.07s.49-2.12-1-2-5.76,3.89-6.32,4.37a.52.52,0,0,0-.1.11c-.42.58-3.31,5.09-3.4,5.83,0,0-.24.4-.32-.17h0c.24-.24.13-.88-.35-.81-.3.05-.39.24-.31.65,0,0,0,.82-.32.33a9.42,9.42,0,0,1-.66-2.13s-5.72-9-9.65-8.18c0,0-1.15.16.49,4.58S111,21.48,115.14,22.87Z" transform="translate(0.5 -3.39)"/><polygon class="cls-1" points="120.72 18.01 120.72 17.03 121.53 15.4 121.7 13.6 121.53 13.27 121.53 12.94 121.7 12.94 121.7 13.27 121.86 13.43 121.7 15.4 120.88 17.2 120.88 18.01 120.72 18.01"/><polygon class="cls-1" points="120.39 18.01 120.39 17.03 119.57 15.4 119.41 13.6 119.57 13.27 119.57 12.94 119.41 12.94 119.41 13.27 119.24 13.43 119.41 15.4 120.22 17.2 120.22 18.01 120.39 18.01"/><text class="cls-2" transform="translate(52.88 28.05)"><tspan class="cls-3">Na</tspan><tspan x="39.24" y="0">t</tspan><tspan x="-47.09" y="28">Cárdenas</tspan></text></svg>