<svg width="68" height="68" viewBox="0 0 68 68" fill="none" xmlns="http://www.w3.org/2000/svg">
<g id="ph:moon-fill">
<path id="Vector" d="M5.43468 39.8996C7.15074 45.5015 10.5899 50.4196 15.2628 53.9538C19.3655 57.0416 24.2475 58.9248 29.361 59.3921C34.4745 59.8594 39.6171 58.8922 44.2115 56.5992C48.8058 54.3061 52.6702 50.778 55.3707 46.4107C58.0713 42.0434 59.5012 37.0099 59.5 31.875C59.5183 25.8817 57.5699 20.0478 53.9537 15.2682C50.4195 10.5953 45.5015 7.1561 39.8995 5.44004C39.5303 5.32636 39.1371 5.31547 38.7622 5.40856C38.3872 5.50164 38.0447 5.69518 37.7716 5.96835C37.4984 6.24152 37.3049 6.58399 37.2118 6.95892C37.1187 7.33386 37.1296 7.72708 37.2433 8.09629C38.4682 12.1482 38.5709 16.4566 37.5404 20.5622C36.51 24.6679 34.3849 28.4171 31.3917 31.4103C28.3985 34.4035 24.6493 36.5286 20.5436 37.5591C16.4379 38.5896 12.1296 38.4869 8.07765 37.2619C7.70844 37.1482 7.31522 37.1374 6.94028 37.2304C6.56534 37.3235 6.22287 37.5171 5.9497 37.7902C5.67653 38.0634 5.483 38.4059 5.38992 38.7808C5.29683 39.1557 5.30772 39.549 5.4214 39.9182L5.43468 39.8996Z" fill="#4D3E32"/>
</g>
</svg>
